#!OML:ASF X:\für Bonn\!DataBase\2005_08_10_Bjorn_Final\c3d\bjorn.ASF
:FULLY-SPECIFIED
:DEGREES
91
root 1.44658 19.613 3.19736 -209.695 -48.9857 -153.235
lowerback 34.1758 -0.227291 -4.30328
upperback 21.1295 -6.46909 -1.47981
thorax 6.14498 -5.6489 2.05624
lowerneck -5.09798 -7.06859 -0.707244
upperneck 2.84085 -12.6673 26.1341
head 3.57604 -6.38667 7.45833
rclavicle 1.04958e-013 1.46306e-013
rhumerus -46.3477 -5.94835 -85.7212
rradius 24.1015
rwrist 23.4362
rhand -13.671 15.4142
rfingers 7.12502
rthumb 12.4463 -14.1953
lclavicle 1.04958e-013 1.46306e-013
lhumerus 67.2056 -34.1425 77.1076
lradius 103.079
lwrist 2.47345
lhand -41.0496 -22.3594
lfingers 7.12502
lthumb -13.9795 7.15062
rfemur -92.623 -11.8711 16.4395
rtibia 126.291
rfoot -11.3727 26.3276
rtoes -28.7342
lfemur -4.54961 -18.7423 -2.65085
ltibia 20.0789
lfoot 4.91198 -24.1171
ltoes 15.9848
92
root 1.44911 19.5999 3.19654 -209.74 -48.8353 -153.244
lowerback 34.4082 -0.108711 -4.3066
upperback 21.1838 -6.38104 -1.49429
thorax 6.1178 -5.62266 2.02983
lowerneck -5.10451 -7.05474 -0.670744
upperneck 2.67895 -12.6475 26.2917
head 3.53743 -6.39877 7.5063
rclavicle 9.54166e-015 -5.725e-014
rhumerus -46.2955 -6.04942 -85.669
rradius 24.0812
rwrist 23.7994
rhand -13.6523 15.5112
rfingers 7.12502
rthumb 12.4643 -14.0971
lclavicle 9.54166e-015 -5.725e-014
lhumerus 67.2687 -34.1527 77.1662
lradius 103.777
lwrist 2.45734
lhand -40.8579 -22.4343
lfingers 7.12502
lthumb -13.7947 7.08834
rfemur -92.9629 -11.5982 16.8016
rtibia 126.23
rfoot -11.4946 26.2461
rtoes -29.1598
lfemur -4.62572 -18.9766 -2.63448
ltibia 20.4703
lfoot 4.48738 -23.9156
ltoes 15.6573
93
root 1.45086 19.5878 3.19849 -209.72 -48.6505 -153.283
lowerback 34.609 -0.00464276 -4.26936
upperback 21.2079 -6.28692 -1.53398
thorax 6.06096 -5.58089 1.95621
lowerneck -5.06936 -7.05652 -0.587234
upperneck 2.50248 -12.6376 26.4019
head 3.48159 -6.41913 7.53218
rclavicle -4.45278e-014 -5.725e-014
rhumerus -46.3192 -6.1655 -85.6426
rradius 24.1569
rwrist 24.0975
rhand -13.5568 15.5839
rfingers 7.12502
rthumb 12.5564 -14.0188
lclavicle -4.45278e-014 -5.725e-014
lhumerus 67.2261 -34.1828 77.2673
lradius 104.454
lwrist 2.38619
lhand -40.6416 -22.5326
lfingers 7.12502
lthumb -13.5862 7.00414
rfemur -93.3693 -11.2765 17.1941
rtibia 126.184
rfoot -11.7093 26.0756
rtoes -29.7227
lfemur -4.72424 -19.1834 -2.61194
ltibia 20.8317
lfoot 4.13548 -23.6738
ltoes 15.5895
94
root 1.45209 19.5779 3.20237 -209.687 -48.4336 -153.34
lowerback 34.7933 0.0966191 -4.22832
upperback 21.2425 -6.19895 -1.57555
thorax 6.02232 -5.54398 1.87745
lowerneck -5.12392 -7.05303 -0.470548
upperneck 2.36317 -12.6316 26.4632
head 3.44764 -6.43141 7.53165
rclavicle -7.63333e-014 4.45278e-014
rhumerus -46.2974 -6.28267 -85.6055
rradius 24.2362
rwrist 24.4349
rhand -13.4988 15.6724
rfingers 7.12502
rthumb 12.6124 -13.9269
lclavicle -7.63333e-014 4.45278e-014
lhumerus 67.1884 -34.1589 77.3582
lradius 105.107
lwrist 2.36213
lhand -40.3966 -22.6244
lfingers 7.12502
lthumb -13.35 6.92797
rfemur -93.7282 -10.8723 17.565
rtibia 126.129
rfoot -11.8985 25.8688
rtoes -30.0087
lfemur -4.77921 -19.3662 -2.59844
ltibia 21.1421
lfoot 3.75938 -23.3821
ltoes 15.385
95
root 1.4527 19.568 3.20549 -209.646 -48.2352 -153.424
lowerback 34.9885 0.196061 -4.21684
upperback 21.2593 -6.11758 -1.59889
thorax 5.96535 -5.51263 1.83665
lowerneck -5.0749 -7.04923 -0.425548
upperneck 2.15021 -12.591 26.5412
head 3.37378 -6.43997 7.55714
rclavicle -2.22639e-014 5.725e-014
rhumerus -46.292 -6.34457 -85.555
rradius 24.3617
rwrist 24.6583
rhand -13.3865 15.6748
rfingers 7.12502
rthumb 12.7206 -13.9177
lclavicle -2.22639e-014 5.725e-014
lhumerus 67.0965 -34.1513 77.5428
lradius 105.694
lwrist 2.33639
lhand -40.1799 -22.7432
lfingers 7.12502
lthumb -13.1412 6.82273
rfemur -94.0487 -10.4871 17.8975
rtibia 126.072
rfoot -11.8428 25.7002
rtoes -29.6803
lfemur -4.80964 -19.4898 -2.60529
ltibia 21.4102
lfoot 3.48594 -23.1774
ltoes 15.2639
96
root 1.45225 19.5587 3.20937 -209.557 -48.0321 -153.554
lowerback 35.1529 0.285457 -4.25239
upperback 21.2743 -6.05901 -1.62028
thorax 5.92297 -5.49738 1.82539
lowerneck -5.03085 -7.04195 -0.461733
upperneck 1.95954 -12.5386 26.6085
head 3.30976 -6.4386 7.59331
rclavicle -1.55847e-013 4.77083e-014
rhumerus -46.2433 -6.3399 -85.494
rradius 24.4946
rwrist 24.8144
rhand -13.2588 15.6547
rfingers 7.12502
rthumb 12.8437 -13.9301
lclavicle -1.55847e-013 4.77083e-014
lhumerus 66.9931 -34.0934 77.8088
lradius 106.181
lwrist 2.28796
lhand -39.9797 -22.7098
lfingers 7.12502
lthumb -12.9482 6.86845
rfemur -94.3688 -10.1082 18.2064
rtibia 126.029
rfoot -11.8029 25.4983
rtoes -29.447
lfemur -4.82392 -19.5709 -2.64355
ltibia 21.6502
lfoot 3.19709 -22.9895
ltoes 15.1104
97
root 1.45175 19.5511 3.21503 -209.479 -47.8288 -153.671
lowerback 35.3042 0.357702 -4.20469
upperback 21.3042 -6.00049 -1.67253
thorax 5.89208 -5.47228 1.737
lowerneck -5.00524 -7.04591 -0.482767
upperneck 1.76756 -12.5103 26.7046
head 3.25371 -6.44903 7.63354
rclavicle 5.08889e-014 7.63333e-014
rhumerus -46.1976 -6.39861 -85.5077
rradius 24.6731
rwrist 24.9254
rhand -13.172 15.5614
rfingers 7.12502
rthumb 12.9274 -14.0182
lclavicle 5.08889e-014 7.63333e-014
lhumerus 66.882 -34.112 78.0683
lradius 106.605
lwrist 2.3209
lhand -39.8391 -22.7542
lfingers 7.12502
lthumb -12.8126 6.83258
rfemur -94.6407 -9.72055 18.5074
rtibia 125.961
rfoot -11.7663 25.2751
rtoes -29.2742
lfemur -4.84154 -19.6001 -2.66991
ltibia 21.8654
lfoot 2.97582 -22.838
ltoes 14.9409
98
root 1.45077 19.5429 3.2204 -209.381 -47.6094 -153.806
lowerback 35.5025 0.413651 -4.19902
upperback 21.2884 -5.96793 -1.70113
thorax 5.80138 -5.46123 1.70873
lowerneck -5.00032 -7.04649 -0.620064
upperneck 1.63063 -12.4766 26.7929
head 3.22329 -6.44756 7.68962
rclavicle -2.8625e-014 5.08889e-014
rhumerus -46.1616 -6.32817 -85.4977
rradius 24.8551
rwrist 24.9002
rhand -13.0714 15.4203
rfingers 7.12502
rthumb 13.0244 -14.1531
lclavicle -2.8625e-014 5.08889e-014
lhumerus 66.6571 -34.054 78.4326
lradius 106.997
lwrist 2.35263
lhand -39.7771 -22.699
lfingers 7.12502
lthumb -12.7529 6.89153
rfemur -94.8959 -9.31665 18.7978
rtibia 125.905
rfoot -11.7848 24.9941
rtoes -29.2777
lfemur -4.85399 -19.5241 -2.68956
ltibia 22.0586
lfoot 2.80783 -22.7479
ltoes 14.9026
99
root 1.44819 19.5366 3.22812 -209.251 -47.4198 -153.971
lowerback 35.6937 0.451383 -4.19369
upperback 21.274 -5.95693 -1.73686
thorax 5.71574 -5.45998 1.67791
lowerneck -5.06107 -7.06115 -0.769068
upperneck 1.53284 -12.4698 26.8547
head 3.21888 -6.44938 7.73314
rclavicle 2.22639e-014 5.40694e-014
rhumerus -46.1029 -6.22675 -85.5182
rradius 25.0659
rwrist 24.8518
rhand -13.0464 15.2497
rfingers 7.12502
rthumb 13.0485 -14.3221
lclavicle 2.22639e-014 5.40694e-014
lhumerus 66.4277 -33.9844 78.7457
lradius 107.376
lwrist 2.42259
lhand -39.8965 -22.6138
lfingers 7.12502
lthumb -12.868 6.96953
rfemur -95.131 -8.98002 19.0438
rtibia 125.841
rfoot -11.7575 24.7613
rtoes -29.2467
lfemur -4.86513 -19.4999 -2.75206
ltibia 22.2247
lfoot 2.65775 -22.5919
ltoes 14.8931
100
root 1.44504 19.5307 3.23548 -209.112 -47.1978 -154.145
lowerback 35.8673 0.505214 -4.25634
upperback 21.2433 -5.94036 -1.7508
thorax 5.62537 -5.46282 1.70361
lowerneck -5.04751 -7.04968 -0.950765
upperneck 1.40568 -12.4138 26.9283
head 3.18799 -6.43549 7.79431
rclavicle -2.22639e-014 8.5875e-014
rhumerus -46.0344 -6.04916 -85.5372
rradius 25.2471
rwrist 24.6927
rhand -13.0946 15.1287
rfingers 7.12502
rthumb 13.002 -14.4461
lclavicle -2.22639e-014 8.5875e-014
lhumerus 66.1239 -33.8567 79.1073
lradius 107.721
lwrist 2.49952
lhand -40.0768 -22.4241
lfingers 7.12502
lthumb -13.0418 7.14814
rfemur -95.3022 -8.57534 19.2728
rtibia 125.762
rfoot -11.6294 24.5218
rtoes -28.8924
lfemur -4.85625 -19.3796 -2.80808
ltibia 22.3654
lfoot 2.4908 -22.5117
ltoes 14.6502
101
root 1.44166 19.527 3.24549 -208.961 -46.9879 -154.325
lowerback 36.0253 0.540237 -4.28607
upperback 21.2205 -5.93752 -1.77566
thorax 5.54647 -5.46863 1.70284
lowerneck -5.07429 -7.05255 -1.1481
upperneck 1.31199 -12.3879 27.0081
head 3.18022 -6.42984 7.85541
rclavicle 7.63333e-014 9.54166e-015
rhumerus -45.9405 -5.86465 -85.6018
rradius 25.4464
rwrist 24.429
rhand -13.1742 15.0289
rfingers 7.12502
rthumb 12.9252 -14.5508
lclavicle 7.63333e-014 9.54166e-015
lhumerus 65.8347 -33.7366 79.421
lradius 108.044
lwrist 2.59022
lhand -40.3565 -22.26
lfingers 7.12502
lthumb -13.3114 7.29489
rfemur -95.4496 -8.18897 19.4834
rtibia 125.676
rfoot -11.5718 24.2786
rtoes -28.8809
lfemur -4.84924 -19.3034 -2.87508
ltibia 22.4842
lfoot 2.34225 -22.3922
ltoes 14.5609
102
root 1.43703 19.522 3.25504 -208.8 -46.7936 -154.533
lowerback 36.183 0.579453 -4.37294
upperback 21.191 -5.94475 -1.78268
thorax 5.4676 -5.48614 1.75285
lowerneck -5.1541 -7.05584 -1.37255
upperneck 1.29711 -12.3788 27.0667
head 3.20768 -6.41972 7.90951
rclavicle -5.08889e-014 -1.30403e-013
rhumerus -45.8404 -5.62512 -85.6533
rradius 25.6426
rwrist 24.1749
rhand -13.3389 14.9458
rfingers 7.12502
rthumb 12.7665 -14.6439
lclavicle -5.08889e-014 -1.30403e-013
lhumerus 65.5299 -33.5929 79.7337
lradius 108.327
lwrist 2.67875
lhand -40.7194 -22.0337
lfingers 7.12502
lthumb -13.6612 7.49795
rfemur -95.532 -7.84209 19.6404
rtibia 125.587
rfoot -11.4958 24.0854
rtoes -28.8
lfemur -4.83115 -19.1911 -2.97236
ltibia 22.5981
lfoot 2.24601 -22.2997
ltoes 14.5022
